<svg xmlns="http://www.w3.org/2000/svg" viewBox="0 0 179 238">
  <path fill="#63DC3E"
    d="M105.67 79.03L21.82 96.1 9.4 73.26l61.79-40.54V12.33l32.34 20.94 7.1-3.93 10.06-5.48-.4 11.27-.02-.01-.38 10.83 5.5-2.96h1.3v-.7l12.32-6.63-.4 11.58-.04-.02-.3 8.65 17.99 9.27-12 8.42-3.85 2.72.16 2.47 17.2 8.6-9.34 6.48v-.03l-6.38 4.4v.96l.13 1.77 17.13 8.59-14.84 10.36-.9.66.08 1 .19 1.55 3.34 1.69v.09l13.67 6.82-14.8 10.33-.9.56.23 2.7 3.4 1.71v.1l13.63 6.8-9.18 6.39v-.02l-5.23 3.6h-1.34l.28 3.8 7.02 3.43 10 4.98-11.6 8.08-.83.65-3.24 2.28.23 2.64 16.99 8.54-11.19 7.78-2.96.37-.32.06H41.74a197.47 197.47 0 0147.47-88.35l3.57-3.82-4.85-16.6-6.34 1.95 3.75 12.8a213.18 213.18 0 00-51.08 96.93l-.9 3.89h122.39l22.96-16-19.46-9.7 17.91-12.48-19.46-9.7 17.91-12.48-19.46-9.7 17.91-12.47-19.46-9.72 17.9-12.47-19.45-9.71 17.91-12.47-19.46-9.71 17.91-12.47-24.35-12.15.99-27.9-19.11 10.4.78-22.22-23.96 13.06L64.57 0v29L.58 70.96 18.52 104l89.17-18.49-2.02-6.5zm68.94 151.71H33.27v6.77H174.6v-6.77zm-17.46-12.61H33.27v6.77h123.88v-6.77z">
  </path>
</svg>